<svg id="svg" version="1.1" width="400" height="236.986301369863" viewBox="0 0 400 236.986301369863" xmlns="http://www.w3.org/2000/svg" xmlns:xlink="http://www.w3.org/1999/xlink" style="display: block;"><g id="svgg"><path id="path0" d="M115.471 0.451 C 115.471 0.734,115.218 0.990,114.791 1.139 C 113.820 1.478,112.485 2.898,112.309 3.780 C 112.226 4.194,112.152 27.493,112.145 55.556 L 112.132 106.580 113.825 108.358 C 114.757 109.336,116.050 110.697,116.698 111.381 C 117.695 112.434,118.348 112.838,118.611 112.567 C 118.643 112.534,118.723 89.024,118.789 60.321 C 118.890 16.567,118.962 8.071,119.235 7.742 C 119.537 7.379,129.342 7.350,255.504 7.350 L 391.447 7.350 391.752 7.884 C 392.239 8.736,392.319 185.327,391.833 186.490 L 391.488 187.315 255.504 187.315 L 119.519 187.315 119.214 186.781 C 118.980 186.372,118.882 183.207,118.791 173.159 C 118.660 158.715,118.794 159.719,116.935 159.228 C 116.267 159.052,115.424 158.679,115.062 158.398 C 113.215 156.966,112.651 156.713,112.392 157.196 C 112.069 157.800,112.065 189.721,112.389 190.885 C 112.654 191.839,113.528 192.765,114.896 193.543 L 115.827 194.072 171.153 194.191 L 226.479 194.309 226.905 194.835 C 227.297 195.319,227.305 195.489,227.006 196.969 C 226.320 200.370,226.235 201.045,226.094 204.223 C 226.015 206.024,225.789 208.192,225.592 209.041 C 225.395 209.890,225.031 212.974,224.782 215.893 C 224.534 218.813,224.232 221.393,224.111 221.626 C 223.990 221.860,223.708 222.885,223.485 223.903 C 223.262 224.922,222.937 225.810,222.765 225.877 C 222.592 225.943,222.313 226.336,222.146 226.751 C 221.836 227.518,216.210 233.314,215.775 233.314 C 215.316 233.314,214.773 235.039,215.044 235.635 C 215.181 235.935,215.293 236.390,215.293 236.644 C 215.293 237.102,215.773 237.107,255.313 237.107 L 295.333 237.107 295.707 236.098 C 296.218 234.721,295.989 234.230,293.941 232.294 C 292.227 230.674,290.372 228.868,289.502 227.970 C 289.244 227.705,289.034 227.366,289.034 227.218 C 289.034 227.069,288.755 226.617,288.414 226.212 C 288.074 225.807,287.697 225.025,287.578 224.475 C 287.458 223.924,287.158 222.780,286.909 221.932 C 286.629 220.974,286.355 218.868,286.186 216.360 C 286.036 214.143,285.716 211.369,285.475 210.196 C 285.233 209.022,284.964 206.568,284.878 204.742 C 284.791 202.916,284.622 200.943,284.502 200.356 C 283.403 194.984,283.450 194.575,285.195 194.336 C 285.778 194.256,310.647 194.190,340.460 194.189 C 394.147 194.188,394.672 194.183,395.376 193.717 C 395.768 193.458,396.253 193.245,396.455 193.244 C 396.656 193.243,397.243 192.811,397.759 192.283 L 398.696 191.323 398.696 97.331 L 398.696 3.340 397.656 2.280 C 397.084 1.698,396.364 1.158,396.056 1.080 C 395.702 0.991,395.495 0.766,395.495 0.470 C 395.495 0.002,394.888 0.000,255.483 0.000 C 118.030 0.000,115.471 0.008,115.471 0.451 M126.390 15.154 C 126.225 15.461,126.144 32.817,126.138 68.556 L 126.131 121.503 126.716 122.103 C 130.569 126.058,130.672 126.141,131.717 126.141 C 133.110 126.141,133.012 130.111,133.015 73.547 C 133.016 38.977,133.096 22.585,133.263 22.272 C 133.639 21.570,376.923 21.547,377.558 22.249 C 378.091 22.838,378.055 150.789,377.522 151.322 C 377.270 151.574,358.321 151.630,273.726 151.630 C 175.887 151.630,170.230 151.652,170.107 152.040 C 169.738 153.203,165.965 157.118,164.612 157.743 C 163.985 158.033,163.932 158.281,164.453 158.481 C 164.660 158.560,214.162 158.625,274.458 158.625 L 384.087 158.625 384.456 158.098 C 385.041 157.263,385.018 15.630,384.433 15.145 C 383.708 14.543,126.712 14.552,126.390 15.154 M308.832 37.007 C 306.072 37.116,304.204 37.316,302.905 37.639 C 301.861 37.899,300.314 38.248,299.467 38.416 C 298.619 38.584,297.547 38.909,297.084 39.139 C 296.622 39.369,295.822 39.631,295.306 39.722 C 294.791 39.812,294.024 40.084,293.602 40.324 C 293.180 40.565,292.380 40.880,291.823 41.024 C 291.267 41.168,290.545 41.472,290.219 41.699 C 289.893 41.927,289.253 42.260,288.797 42.439 C 288.340 42.619,287.665 43.013,287.297 43.315 C 286.928 43.618,286.483 43.865,286.307 43.865 C 286.131 43.865,285.671 44.132,285.283 44.458 C 284.896 44.784,284.499 45.050,284.400 45.050 C 284.302 45.050,283.766 45.424,283.209 45.880 C 282.652 46.337,282.090 46.710,281.960 46.710 C 281.830 46.710,281.422 47.030,281.052 47.421 C 280.683 47.813,280.299 48.133,280.198 48.133 C 279.844 48.133,274.996 52.838,273.330 54.798 C 272.844 55.371,272.223 56.106,271.951 56.432 C 271.171 57.367,269.031 60.438,268.675 61.135 C 268.498 61.482,268.104 62.140,267.801 62.596 C 267.498 63.053,267.179 63.715,267.093 64.069 C 267.007 64.422,266.791 64.832,266.613 64.979 C 266.435 65.127,266.064 65.852,265.788 66.589 C 265.512 67.327,265.147 68.091,264.976 68.287 C 264.805 68.483,264.548 69.200,264.405 69.881 C 264.262 70.562,263.934 71.514,263.676 71.996 C 263.417 72.477,263.141 73.360,263.060 73.958 C 262.980 74.556,262.718 75.685,262.479 76.467 C 260.823 81.870,260.826 95.043,262.483 99.704 C 262.715 100.356,262.970 101.419,263.049 102.066 C 263.129 102.713,263.407 103.651,263.667 104.150 C 263.927 104.649,264.250 105.549,264.385 106.150 C 264.519 106.751,264.816 107.520,265.044 107.860 C 265.272 108.199,265.603 108.903,265.779 109.425 C 265.955 109.947,266.279 110.640,266.499 110.966 C 266.720 111.292,267.044 111.932,267.220 112.389 C 267.396 112.845,267.734 113.410,267.972 113.643 C 268.211 113.876,268.405 114.215,268.405 114.395 C 268.405 114.576,268.660 115.026,268.971 115.396 C 269.282 115.765,269.735 116.397,269.979 116.801 C 272.334 120.705,277.590 126.190,282.172 129.526 C 283.815 130.723,285.574 131.832,285.828 131.832 C 285.986 131.832,286.299 132.035,286.525 132.285 C 286.750 132.534,287.220 132.809,287.569 132.896 C 287.918 132.983,288.524 133.296,288.915 133.592 C 289.306 133.889,290.053 134.268,290.575 134.436 C 291.097 134.604,291.960 134.993,292.493 135.302 C 293.026 135.610,293.614 135.862,293.800 135.862 C 293.986 135.862,294.547 136.081,295.046 136.349 C 295.545 136.616,296.557 136.945,297.295 137.080 C 298.033 137.215,299.256 137.533,300.013 137.786 C 305.221 139.530,319.061 139.620,324.007 137.943 C 324.790 137.677,326.158 137.318,327.048 137.144 C 327.938 136.970,329.017 136.611,329.447 136.345 C 329.876 136.080,330.433 135.862,330.683 135.862 C 330.934 135.862,331.561 135.642,332.078 135.372 C 332.595 135.102,333.542 134.670,334.183 134.411 C 334.825 134.153,335.625 133.747,335.962 133.510 C 336.298 133.273,336.841 132.997,337.167 132.896 C 337.493 132.796,338.026 132.509,338.352 132.259 C 339.372 131.478,340.570 130.684,341.505 130.171 C 342.001 129.899,342.466 129.521,342.538 129.331 C 342.611 129.142,342.773 128.986,342.898 128.986 C 343.534 128.986,349.455 123.390,351.512 120.846 C 351.903 120.362,352.383 119.781,352.579 119.555 C 353.181 118.859,354.950 116.200,354.950 115.989 C 354.950 115.880,355.216 115.540,355.542 115.234 C 355.868 114.928,356.135 114.582,356.135 114.465 C 356.135 114.348,356.449 113.796,356.833 113.239 C 357.217 112.681,357.604 111.915,357.694 111.536 C 357.784 111.157,358.047 110.634,358.279 110.373 C 358.511 110.113,358.826 109.429,358.979 108.854 C 359.131 108.279,359.410 107.573,359.599 107.285 C 359.787 106.998,360.159 105.977,360.425 105.017 C 360.691 104.056,361.028 103.127,361.174 102.952 C 361.319 102.776,361.630 101.600,361.864 100.338 C 362.098 99.076,362.454 97.457,362.655 96.740 C 363.489 93.760,363.341 80.860,362.444 78.317 C 362.257 77.787,361.978 76.521,361.823 75.504 C 361.669 74.487,361.389 73.420,361.202 73.133 C 361.014 72.846,360.654 71.893,360.403 71.014 C 360.152 70.135,359.791 69.179,359.601 68.889 C 359.411 68.599,359.131 67.892,358.978 67.317 C 358.825 66.742,358.552 66.106,358.372 65.904 C 358.192 65.702,357.883 65.079,357.685 64.519 C 357.488 63.959,357.058 63.183,356.731 62.794 C 356.403 62.404,356.135 61.971,356.135 61.830 C 356.135 61.689,355.868 61.224,355.542 60.797 C 355.216 60.370,354.950 59.906,354.950 59.767 C 354.950 59.628,354.722 59.286,354.443 59.007 C 354.164 58.728,353.486 57.842,352.935 57.038 C 350.696 53.768,344.959 48.176,342.205 46.580 C 341.781 46.335,341.434 46.053,341.434 45.954 C 341.434 45.855,341.088 45.599,340.664 45.384 C 340.240 45.170,339.680 44.806,339.419 44.576 C 339.158 44.345,338.678 44.076,338.352 43.978 C 338.026 43.880,337.469 43.557,337.113 43.260 C 336.758 42.963,336.064 42.591,335.572 42.433 C 335.080 42.276,334.464 41.965,334.203 41.742 C 333.942 41.519,333.248 41.202,332.662 41.036 C 332.075 40.871,331.431 40.590,331.230 40.412 C 331.030 40.235,330.227 39.940,329.445 39.758 C 328.664 39.576,327.708 39.264,327.320 39.065 C 326.932 38.866,325.975 38.575,325.193 38.418 C 324.410 38.261,322.703 37.883,321.399 37.579 C 318.626 36.932,314.931 36.764,308.832 37.007 M308.177 44.295 C 308.405 44.440,308.483 49.597,308.532 67.753 C 308.583 86.465,308.656 91.086,308.903 91.334 C 309.150 91.581,313.828 91.665,332.470 91.761 C 359.564 91.899,356.519 91.441,355.702 95.256 C 355.401 96.659,354.996 98.594,354.801 99.556 C 354.606 100.518,354.302 101.532,354.125 101.808 C 353.948 102.085,353.679 102.792,353.527 103.379 C 353.376 103.966,353.061 104.775,352.828 105.176 C 352.595 105.578,352.268 106.325,352.102 106.836 C 351.935 107.347,351.547 108.067,351.240 108.436 C 350.933 108.804,350.682 109.303,350.682 109.544 C 350.682 109.784,350.415 110.298,350.089 110.686 C 349.763 111.073,349.496 111.484,349.496 111.600 C 349.496 111.869,347.451 114.659,345.813 116.623 C 344.505 118.192,342.292 120.354,340.368 121.942 C 337.299 124.476,337.072 124.646,336.546 124.811 C 336.270 124.897,335.853 125.178,335.620 125.436 C 335.387 125.693,335.097 125.904,334.977 125.904 C 334.856 125.904,334.195 126.277,333.507 126.734 C 332.819 127.190,332.095 127.564,331.898 127.564 C 331.701 127.564,331.279 127.769,330.960 128.020 C 330.414 128.449,328.955 129.045,326.497 129.842 C 322.580 131.112,321.414 131.412,319.621 131.612 C 318.512 131.735,316.125 132.010,314.315 132.221 C 311.305 132.573,310.840 132.574,308.861 132.232 C 307.672 132.026,305.652 131.744,304.374 131.604 C 302.967 131.451,301.477 131.118,300.598 130.761 C 299.800 130.437,298.923 130.172,298.649 130.172 C 298.375 130.172,297.513 129.855,296.734 129.468 C 295.955 129.081,295.214 128.761,295.088 128.757 C 294.890 128.750,293.369 128.010,290.018 126.290 C 289.542 126.045,288.851 125.592,288.482 125.282 C 288.113 124.972,287.676 124.718,287.510 124.718 C 287.233 124.718,286.614 124.237,285.004 122.768 C 284.679 122.472,283.634 121.563,282.682 120.749 C 280.821 119.159,279.234 117.460,277.304 114.997 C 276.845 114.410,276.329 113.770,276.159 113.574 C 275.988 113.379,275.385 112.418,274.818 111.440 C 274.251 110.462,273.536 109.264,273.230 108.778 C 272.924 108.292,272.673 107.783,272.673 107.647 C 272.673 107.512,272.353 106.801,271.962 106.068 C 271.571 105.335,271.251 104.585,271.251 104.403 C 271.251 104.220,271.043 103.665,270.790 103.168 C 270.537 102.671,270.159 101.530,269.951 100.632 C 269.742 99.734,269.404 98.518,269.199 97.929 C 268.145 94.900,268.038 82.566,269.035 78.957 C 269.233 78.239,269.604 76.820,269.860 75.801 C 270.116 74.783,270.517 73.610,270.751 73.193 C 270.985 72.777,271.255 72.009,271.352 71.488 C 271.449 70.966,271.676 70.374,271.857 70.172 C 272.038 69.970,272.347 69.349,272.544 68.793 C 272.740 68.237,273.116 67.508,273.380 67.173 C 273.643 66.837,273.859 66.465,273.859 66.345 C 273.859 66.226,274.366 65.376,274.985 64.458 C 275.605 63.539,276.325 62.438,276.586 62.012 C 277.591 60.367,281.865 55.832,284.210 53.922 C 284.924 53.341,285.634 52.759,285.789 52.629 C 286.415 52.103,287.763 51.213,288.281 50.983 C 288.584 50.849,289.297 50.419,289.865 50.029 C 290.433 49.638,290.997 49.318,291.119 49.318 C 291.241 49.318,291.615 49.103,291.950 48.839 C 292.285 48.575,293.015 48.199,293.571 48.003 C 294.127 47.807,294.748 47.501,294.950 47.323 C 295.152 47.145,295.675 46.924,296.112 46.831 C 296.549 46.738,297.456 46.413,298.127 46.109 C 298.799 45.805,300.202 45.400,301.245 45.210 C 302.288 45.019,303.568 44.697,304.090 44.493 C 305.088 44.104,307.678 43.978,308.177 44.295 M321.043 44.803 C 321.761 45.061,322.703 45.275,323.138 45.280 C 323.572 45.284,324.728 45.608,325.705 45.999 C 326.682 46.390,327.598 46.710,327.741 46.710 C 328.203 46.710,333.898 49.462,334.655 50.050 C 334.928 50.263,335.525 50.626,335.981 50.857 C 336.437 51.088,336.971 51.420,337.167 51.596 C 337.663 52.040,339.025 53.128,340.012 53.868 C 340.468 54.210,341.322 54.928,341.909 55.464 C 342.496 56.000,343.082 56.524,343.213 56.629 C 343.617 56.954,346.259 59.998,346.643 60.581 C 346.843 60.885,347.507 61.776,348.118 62.560 C 348.729 63.344,349.423 64.323,349.659 64.736 C 349.896 65.149,350.376 65.984,350.727 66.591 C 351.078 67.198,351.494 67.961,351.651 68.287 C 352.658 70.377,353.283 71.897,353.621 73.076 C 353.833 73.819,354.103 74.487,354.220 74.559 C 354.337 74.631,354.557 75.464,354.708 76.409 C 354.859 77.354,355.192 78.779,355.448 79.575 C 355.911 81.014,356.120 83.860,355.800 84.377 C 355.677 84.576,350.460 84.647,336.103 84.647 L 316.573 84.647 316.081 84.023 C 315.596 83.405,315.271 46.618,315.736 44.885 C 315.981 43.972,318.615 43.931,321.043 44.803 M241.005 89.865 C 239.679 90.097,239.723 89.285,239.719 113.854 C 239.716 134.164,239.754 136.579,240.088 136.913 C 240.559 137.383,244.753 137.439,245.593 136.985 L 246.136 136.692 246.128 113.871 C 246.124 101.319,246.119 90.945,246.119 90.818 C 246.114 90.029,243.184 89.483,241.005 89.865 M227.593 104.719 C 227.060 105.361,226.985 136.376,227.515 136.906 C 228.062 137.454,232.399 137.455,232.946 136.908 C 233.590 136.263,233.387 105.140,232.735 104.664 C 232.033 104.151,228.029 104.194,227.593 104.719 M215.120 119.265 L 214.540 119.621 214.542 128.146 C 214.544 136.027,214.576 136.695,214.964 136.978 C 215.521 137.385,220.059 137.404,220.462 137.001 C 220.909 136.554,220.865 119.992,220.416 119.378 C 219.979 118.780,216.047 118.696,215.120 119.265 M276.897 201.212 C 277.841 201.401,277.837 201.389,278.246 206.134 C 278.439 208.368,278.745 210.679,278.927 211.270 C 279.109 211.860,279.333 213.834,279.425 215.656 C 279.516 217.478,279.734 219.769,279.908 220.747 C 280.082 221.725,280.398 223.485,280.609 224.659 C 280.831 225.891,281.195 227.073,281.471 227.454 C 281.794 227.902,281.925 228.400,281.875 228.995 L 281.802 229.876 255.365 229.876 L 228.929 229.876 229.010 228.932 C 229.055 228.412,229.288 227.711,229.529 227.373 C 229.920 226.824,230.328 224.929,231.212 219.561 C 231.330 218.844,231.522 216.705,231.637 214.807 C 231.753 212.910,232.009 210.456,232.207 209.354 C 232.649 206.886,233.076 203.546,233.076 202.554 C 233.076 200.967,231.606 201.067,254.996 201.067 C 266.642 201.067,276.497 201.132,276.897 201.212 " stroke="none" fill="#fc843d" fill-rule="evenodd"></path><path id="path1" d="M113.811 0.350 C 113.811 0.542,113.507 0.857,113.134 1.049 C 112.673 1.288,112.181 1.957,111.595 3.145 L 110.732 4.889 110.727 54.753 L 110.723 104.616 111.251 105.471 C 112.114 106.868,112.103 107.478,112.128 54.861 C 112.141 27.198,112.221 4.219,112.305 3.796 C 112.485 2.900,113.813 1.480,114.791 1.139 C 115.823 0.780,115.720 0.000,114.641 0.000 C 114.068 0.000,113.811 0.108,113.811 0.350 M395.495 0.470 C 395.495 0.766,395.702 0.991,396.056 1.080 C 396.364 1.158,397.084 1.698,397.656 2.280 L 398.696 3.340 398.696 97.331 L 398.696 191.323 397.759 192.283 C 397.243 192.811,396.656 193.243,396.455 193.244 C 396.253 193.245,395.768 193.458,395.376 193.717 C 394.672 194.183,394.147 194.188,340.460 194.189 C 310.647 194.190,285.778 194.256,285.195 194.336 C 283.450 194.575,283.403 194.984,284.502 200.356 C 284.622 200.943,284.791 202.916,284.878 204.742 C 284.964 206.568,285.233 209.022,285.475 210.196 C 285.716 211.369,286.036 214.143,286.186 216.360 C 286.355 218.868,286.629 220.974,286.909 221.932 C 287.158 222.780,287.458 223.924,287.578 224.475 C 287.697 225.025,288.074 225.807,288.414 226.212 C 288.755 226.617,289.034 227.081,289.034 227.243 C 289.034 227.405,289.274 227.763,289.567 228.039 C 289.861 228.315,290.436 228.895,290.846 229.327 C 291.256 229.759,292.508 230.963,293.627 232.002 C 295.918 234.129,296.254 234.742,295.764 235.906 C 295.328 236.943,295.348 237.107,295.910 237.107 C 296.171 237.107,296.384 236.964,296.384 236.788 C 296.384 236.612,296.598 236.222,296.858 235.922 C 297.119 235.621,297.333 235.232,297.333 235.058 C 297.333 234.883,297.119 234.607,296.858 234.444 C 296.598 234.281,296.384 234.005,296.384 233.829 C 296.384 233.460,292.954 229.994,292.588 229.994 C 292.453 229.994,292.223 229.729,292.075 229.406 C 291.928 229.082,291.615 228.757,291.381 228.682 C 291.147 228.608,290.888 228.336,290.806 228.079 C 290.724 227.821,290.399 227.441,290.083 227.234 C 289.767 227.027,289.508 226.725,289.508 226.564 C 289.508 226.403,289.190 225.802,288.801 225.228 C 288.354 224.569,288.093 223.880,288.090 223.355 C 288.083 221.835,287.546 218.499,287.251 218.139 C 287.063 217.908,286.875 216.076,286.718 212.922 C 286.546 209.460,286.362 207.755,286.079 206.995 C 285.810 206.274,285.617 204.660,285.482 202.015 C 285.372 199.864,285.206 197.437,285.112 196.623 L 284.942 195.143 340.173 195.082 L 395.404 195.021 396.179 194.369 C 396.605 194.010,397.086 193.717,397.246 193.717 C 397.745 193.717,399.011 192.306,399.173 191.570 C 399.257 191.186,399.478 190.871,399.663 190.871 C 399.954 190.871,400.000 178.011,400.000 97.451 C 400.000 14.569,399.960 4.031,399.644 4.031 C 399.449 4.031,399.289 3.873,399.289 3.680 C 399.289 2.879,398.519 1.490,397.859 1.101 C 397.472 0.872,397.155 0.530,397.155 0.342 C 397.155 0.109,396.890 0.000,396.325 0.000 C 395.656 0.000,395.495 0.091,395.495 0.470 M119.235 7.742 C 118.962 8.071,118.890 16.558,118.791 60.270 C 118.686 106.259,118.630 112.435,118.317 112.647 C 118.009 112.855,118.023 112.926,118.418 113.172 C 118.670 113.328,119.310 113.918,119.841 114.483 C 120.372 115.048,121.662 116.382,122.707 117.447 C 123.752 118.512,124.865 119.747,125.180 120.192 C 125.695 120.919,125.771 120.954,125.930 120.547 C 126.028 120.299,126.115 96.562,126.124 67.799 C 126.138 26.356,126.203 15.419,126.437 15.100 C 126.847 14.544,383.763 14.588,384.433 15.145 C 385.018 15.630,385.041 157.263,384.456 158.098 L 384.087 158.625 274.423 158.625 C 196.861 158.625,164.619 158.550,164.283 158.371 C 163.894 158.162,163.712 158.220,163.275 158.692 C 162.982 159.008,162.323 159.345,161.810 159.440 C 161.297 159.535,160.714 159.760,160.514 159.939 C 159.473 160.872,121.147 161.184,119.384 160.273 L 118.672 159.906 118.739 172.926 C 118.796 183.914,118.862 186.053,119.160 186.630 L 119.514 187.315 255.501 187.315 L 391.488 187.315 391.833 186.490 C 392.319 185.327,392.239 8.736,391.752 7.884 L 391.447 7.350 255.504 7.350 C 129.342 7.350,119.537 7.379,119.235 7.742 M133.265 22.268 C 133.102 22.572,133.002 39.684,132.961 74.322 L 132.899 125.922 143.490 125.854 L 154.080 125.785 154.634 125.244 C 154.938 124.946,155.747 124.176,156.432 123.534 C 157.116 122.892,157.676 122.255,157.676 122.120 C 157.676 121.984,157.777 121.873,157.900 121.873 C 158.023 121.873,159.839 120.139,161.935 118.020 C 166.437 113.468,165.720 114.186,168.082 111.873 C 169.140 110.837,170.006 109.889,170.006 109.766 C 170.006 109.644,170.111 109.544,170.240 109.544 C 170.428 109.544,172.803 107.232,174.193 105.697 C 174.344 105.531,175.277 104.613,176.267 103.659 C 177.257 102.704,178.068 101.841,178.068 101.741 C 178.068 101.640,178.334 101.437,178.660 101.288 C 178.986 101.139,179.253 100.856,179.253 100.657 C 179.253 100.459,179.348 100.296,179.464 100.296 C 179.745 100.296,181.784 98.275,182.102 97.682 C 182.239 97.425,182.461 97.214,182.594 97.214 C 182.880 97.214,185.181 94.861,185.181 94.569 C 185.181 94.459,185.343 94.369,185.542 94.369 C 185.740 94.369,186.024 94.102,186.172 93.776 C 186.321 93.450,186.520 93.183,186.615 93.183 C 186.709 93.183,187.586 92.369,188.562 91.374 C 189.538 90.380,190.430 89.473,190.545 89.359 C 190.886 89.022,194.527 85.382,194.784 85.122 C 194.914 84.990,195.581 84.341,196.266 83.678 C 196.950 83.016,197.510 82.377,197.510 82.257 C 197.510 82.137,197.673 82.039,197.872 82.039 C 198.071 82.039,198.331 81.782,198.451 81.467 C 198.571 81.152,198.862 80.829,199.097 80.750 C 199.333 80.671,200.006 80.028,200.593 79.321 C 201.180 78.613,201.841 77.970,202.063 77.891 C 202.284 77.812,202.531 77.539,202.612 77.285 C 202.693 77.031,202.853 76.823,202.967 76.823 C 203.082 76.823,203.955 76.013,204.907 75.023 C 206.812 73.042,207.070 72.783,208.714 71.196 C 209.333 70.598,209.840 70.019,209.840 69.909 C 209.840 69.799,210.003 69.710,210.201 69.710 C 210.400 69.710,210.661 69.452,210.781 69.137 C 210.900 68.822,211.218 68.495,211.486 68.410 C 211.754 68.325,211.974 68.171,211.974 68.068 C 211.974 67.837,214.349 65.442,214.578 65.442 C 214.669 65.442,214.865 65.175,215.013 64.849 C 215.162 64.523,215.403 64.256,215.549 64.256 C 215.695 64.256,216.110 63.963,216.471 63.604 C 218.469 61.621,218.477 61.617,220.892 61.222 C 223.722 60.759,227.933 61.202,228.880 62.061 C 229.167 62.321,229.693 62.603,230.049 62.687 C 230.405 62.771,231.060 63.159,231.503 63.548 C 231.946 63.938,232.405 64.256,232.521 64.256 C 232.638 64.256,233.012 64.549,233.352 64.908 C 233.692 65.267,234.116 65.685,234.294 65.839 C 234.472 65.992,234.938 66.486,235.329 66.937 C 235.720 67.388,236.334 68.092,236.692 68.500 C 237.051 68.909,237.344 69.381,237.344 69.549 C 237.344 69.717,237.600 70.202,237.913 70.626 C 238.226 71.050,238.555 71.786,238.644 72.261 C 238.734 72.737,239.031 73.557,239.305 74.085 C 240.012 75.445,240.006 78.675,239.294 80.165 C 239.019 80.739,238.720 81.529,238.628 81.921 C 238.453 82.665,235.824 85.340,195.139 126.162 C 175.394 145.974,171.959 149.475,171.002 150.763 L 170.456 151.497 171.002 151.628 C 172.297 151.942,377.207 151.637,377.522 151.322 C 378.055 150.789,378.091 22.838,377.558 22.249 C 376.926 21.551,133.639 21.569,133.265 22.268 M321.399 37.579 C 322.703 37.883,324.410 38.261,325.193 38.418 C 325.975 38.575,326.932 38.866,327.320 39.065 C 327.708 39.264,328.664 39.576,329.445 39.758 C 330.227 39.940,331.030 40.235,331.230 40.412 C 331.431 40.590,332.075 40.871,332.662 41.036 C 333.248 41.202,333.942 41.519,334.203 41.742 C 334.464 41.965,335.080 42.276,335.572 42.433 C 336.064 42.591,336.758 42.963,337.113 43.260 C 337.469 43.557,338.026 43.880,338.352 43.978 C 338.678 44.076,339.158 44.345,339.419 44.576 C 339.680 44.806,340.240 45.170,340.664 45.384 C 341.088 45.599,341.434 45.855,341.434 45.954 C 341.434 46.053,341.781 46.335,342.205 46.580 C 344.959 48.176,350.696 53.768,352.935 57.038 C 353.486 57.842,354.164 58.728,354.443 59.007 C 354.722 59.286,354.950 59.628,354.950 59.767 C 354.950 59.906,355.216 60.370,355.542 60.797 C 355.868 61.224,356.135 61.689,356.135 61.830 C 356.135 61.971,356.403 62.404,356.731 62.794 C 357.058 63.183,357.488 63.959,357.685 64.519 C 357.883 65.079,358.192 65.702,358.372 65.904 C 358.552 66.106,358.825 66.742,358.978 67.317 C 359.131 67.892,359.411 68.599,359.601 68.889 C 359.791 69.179,360.152 70.135,360.403 71.014 C 360.654 71.893,361.014 72.846,361.202 73.133 C 361.389 73.420,361.669 74.487,361.823 75.504 C 361.978 76.521,362.257 77.787,362.444 78.317 C 363.341 80.860,363.489 93.760,362.655 96.740 C 362.454 97.457,362.098 99.076,361.864 100.338 C 361.630 101.600,361.319 102.776,361.174 102.952 C 361.028 103.127,360.691 104.056,360.425 105.017 C 360.159 105.977,359.787 106.998,359.599 107.285 C 359.410 107.573,359.131 108.279,358.979 108.854 C 358.826 109.429,358.511 110.113,358.279 110.373 C 358.047 110.634,357.784 111.157,357.694 111.536 C 357.604 111.915,357.217 112.681,356.833 113.239 C 356.449 113.796,356.135 114.348,356.135 114.465 C 356.135 114.582,355.868 114.928,355.542 115.234 C 355.216 115.540,354.950 115.880,354.950 115.989 C 354.950 116.200,353.181 118.859,352.579 119.555 C 352.383 119.781,351.903 120.362,351.512 120.846 C 349.455 123.390,343.534 128.986,342.898 128.986 C 342.773 128.986,342.611 129.142,342.538 129.331 C 342.466 129.521,342.001 129.899,341.505 130.171 C 340.570 130.684,339.372 131.478,338.352 132.259 C 338.026 132.509,337.493 132.796,337.167 132.896 C 336.841 132.997,336.298 133.273,335.962 133.510 C 335.625 133.747,334.825 134.153,334.183 134.411 C 333.542 134.670,332.595 135.102,332.078 135.372 C 331.561 135.642,330.934 135.862,330.683 135.862 C 330.433 135.862,329.876 136.080,329.447 136.345 C 329.017 136.611,327.938 136.970,327.048 137.144 C 326.158 137.318,324.790 137.677,324.007 137.943 C 319.061 139.620,305.221 139.530,300.013 137.786 C 299.256 137.533,298.033 137.215,297.295 137.080 C 296.557 136.945,295.545 136.616,295.046 136.349 C 294.547 136.081,293.986 135.862,293.800 135.862 C 293.614 135.862,293.026 135.610,292.493 135.302 C 291.960 134.993,291.097 134.604,290.575 134.436 C 290.053 134.268,289.306 133.889,288.915 133.592 C 288.524 133.296,287.918 132.983,287.569 132.896 C 287.220 132.809,286.750 132.534,286.525 132.285 C 286.299 132.035,285.986 131.832,285.828 131.832 C 285.670 131.832,284.913 131.408,284.146 130.890 C 278.358 126.982,272.766 121.421,269.979 116.801 C 269.735 116.397,269.282 115.765,268.971 115.396 C 268.660 115.026,268.405 114.576,268.405 114.395 C 268.405 114.215,268.211 113.876,267.972 113.643 C 267.734 113.410,267.396 112.845,267.220 112.389 C 267.044 111.932,266.720 111.292,266.499 110.966 C 266.279 110.640,265.955 109.947,265.779 109.425 C 265.603 108.903,265.272 108.199,265.044 107.860 C 264.816 107.520,264.519 106.751,264.385 106.150 C 264.250 105.549,263.927 104.649,263.667 104.150 C 263.407 103.651,263.129 102.713,263.049 102.066 C 262.970 101.419,262.715 100.356,262.483 99.704 C 260.826 95.043,260.823 81.870,262.479 76.467 C 262.718 75.685,262.980 74.556,263.060 73.958 C 263.141 73.360,263.417 72.477,263.676 71.996 C 263.934 71.514,264.262 70.562,264.405 69.881 C 264.548 69.200,264.805 68.483,264.976 68.287 C 265.147 68.091,265.512 67.327,265.788 66.589 C 266.064 65.852,266.435 65.127,266.613 64.979 C 266.791 64.832,267.007 64.422,267.093 64.069 C 267.179 63.715,267.498 63.053,267.801 62.596 C 268.104 62.140,268.498 61.482,268.675 61.135 C 269.031 60.438,271.171 57.367,271.951 56.432 C 272.223 56.106,272.844 55.371,273.330 54.798 C 274.996 52.838,279.844 48.133,280.198 48.133 C 280.299 48.133,280.683 47.813,281.052 47.421 C 281.422 47.030,281.830 46.710,281.960 46.710 C 282.090 46.710,282.652 46.337,283.209 45.880 C 283.766 45.424,284.302 45.050,284.400 45.050 C 284.499 45.050,284.896 44.784,285.283 44.458 C 285.671 44.132,286.131 43.865,286.307 43.865 C 286.483 43.865,286.928 43.618,287.297 43.315 C 287.665 43.013,288.340 42.619,288.797 42.439 C 289.253 42.260,289.893 41.927,290.219 41.699 C 290.545 41.472,291.267 41.168,291.823 41.024 C 292.380 40.880,293.180 40.565,293.602 40.324 C 294.024 40.084,294.791 39.812,295.306 39.722 C 295.822 39.631,296.622 39.369,297.084 39.139 C 297.547 38.909,298.619 38.584,299.467 38.416 C 300.314 38.248,301.861 37.899,302.905 37.639 C 306.785 36.673,317.367 36.639,321.399 37.579 M304.090 44.493 C 303.568 44.697,302.288 45.019,301.245 45.210 C 300.202 45.400,298.799 45.805,298.127 46.109 C 297.456 46.413,296.549 46.738,296.112 46.831 C 295.675 46.924,295.152 47.145,294.950 47.323 C 294.748 47.501,294.127 47.807,293.571 48.003 C 293.015 48.199,292.285 48.575,291.950 48.839 C 291.615 49.103,291.241 49.318,291.119 49.318 C 290.997 49.318,290.433 49.638,289.865 50.029 C 289.297 50.419,288.584 50.849,288.281 50.983 C 287.763 51.213,286.415 52.103,285.789 52.629 C 285.634 52.759,284.924 53.341,284.210 53.922 C 281.865 55.832,277.591 60.367,276.586 62.012 C 276.325 62.438,275.605 63.539,274.985 64.458 C 274.366 65.376,273.859 66.226,273.859 66.345 C 273.859 66.465,273.643 66.837,273.380 67.173 C 273.116 67.508,272.740 68.237,272.544 68.793 C 272.347 69.349,272.038 69.970,271.857 70.172 C 271.676 70.374,271.449 70.966,271.352 71.488 C 271.255 72.009,270.985 72.777,270.751 73.193 C 270.517 73.610,270.116 74.783,269.860 75.801 C 269.604 76.820,269.233 78.239,269.035 78.957 C 268.038 82.566,268.145 94.900,269.199 97.929 C 269.404 98.518,269.742 99.734,269.951 100.632 C 270.159 101.530,270.537 102.671,270.790 103.168 C 271.043 103.665,271.251 104.220,271.251 104.403 C 271.251 104.585,271.571 105.335,271.962 106.068 C 272.353 106.801,272.673 107.512,272.673 107.647 C 272.673 107.783,272.924 108.292,273.230 108.778 C 273.536 109.264,274.251 110.462,274.818 111.440 C 275.385 112.418,275.988 113.379,276.159 113.574 C 276.329 113.770,276.845 114.410,277.304 114.997 C 278.135 116.058,278.363 116.328,280.063 118.259 C 280.551 118.815,281.730 119.935,282.682 120.749 C 283.634 121.563,284.679 122.472,285.004 122.768 C 286.614 124.237,287.233 124.718,287.510 124.718 C 287.676 124.718,288.113 124.972,288.482 125.282 C 288.851 125.592,289.542 126.045,290.018 126.290 C 293.369 128.010,294.890 128.750,295.088 128.757 C 295.214 128.761,295.955 129.081,296.734 129.468 C 297.513 129.855,298.375 130.172,298.649 130.172 C 298.923 130.172,299.800 130.437,300.598 130.761 C 301.477 131.118,302.967 131.451,304.374 131.604 C 305.652 131.744,307.672 132.026,308.861 132.232 C 310.840 132.574,311.305 132.573,314.315 132.221 C 316.125 132.010,318.512 131.735,319.621 131.612 C 321.414 131.412,322.580 131.112,326.497 129.842 C 328.955 129.045,330.414 128.449,330.960 128.020 C 331.279 127.769,331.701 127.564,331.898 127.564 C 332.095 127.564,332.819 127.190,333.507 126.734 C 334.195 126.277,334.856 125.904,334.977 125.904 C 335.097 125.904,335.387 125.693,335.620 125.436 C 335.853 125.178,336.270 124.897,336.546 124.811 C 337.072 124.646,337.299 124.476,340.368 121.942 C 342.292 120.354,344.505 118.192,345.813 116.623 C 347.451 114.659,349.496 111.869,349.496 111.600 C 349.496 111.484,349.763 111.073,350.089 110.686 C 350.415 110.298,350.682 109.784,350.682 109.544 C 350.682 109.303,350.933 108.804,351.240 108.436 C 351.547 108.067,351.935 107.347,352.102 106.836 C 352.268 106.325,352.595 105.578,352.828 105.176 C 353.061 104.775,353.376 103.966,353.527 103.379 C 353.679 102.792,353.948 102.085,354.125 101.808 C 354.302 101.532,354.606 100.518,354.801 99.556 C 354.996 98.594,355.401 96.659,355.702 95.256 C 356.519 91.441,359.564 91.899,332.470 91.761 C 313.828 91.665,309.150 91.581,308.903 91.334 C 308.656 91.086,308.583 86.465,308.532 67.753 C 308.483 49.597,308.405 44.440,308.177 44.295 C 307.678 43.978,305.088 44.104,304.090 44.493 M316.266 44.246 C 315.609 44.445,315.596 44.827,315.593 64.402 C 315.590 83.263,315.593 83.402,316.081 84.023 L 316.573 84.647 336.103 84.647 C 350.460 84.647,355.677 84.576,355.800 84.377 C 356.120 83.860,355.911 81.014,355.448 79.575 C 355.192 78.779,354.859 77.354,354.708 76.409 C 354.557 75.464,354.337 74.631,354.220 74.559 C 354.103 74.487,353.833 73.819,353.621 73.076 C 353.283 71.897,352.658 70.377,351.651 68.287 C 351.494 67.961,351.078 67.198,350.727 66.591 C 350.376 65.984,349.896 65.149,349.659 64.736 C 349.423 64.323,348.729 63.344,348.118 62.560 C 347.507 61.776,346.843 60.885,346.643 60.581 C 346.259 59.998,343.617 56.954,343.213 56.629 C 343.082 56.524,342.496 56.000,341.909 55.464 C 341.322 54.928,340.468 54.210,340.012 53.868 C 339.025 53.128,337.663 52.040,337.167 51.596 C 336.971 51.420,336.437 51.088,335.981 50.857 C 335.525 50.626,334.928 50.263,334.655 50.050 C 333.898 49.462,328.203 46.710,327.741 46.710 C 327.598 46.710,326.682 46.390,325.705 45.999 C 324.728 45.608,323.572 45.284,323.138 45.280 C 322.703 45.275,321.761 45.061,321.043 44.803 C 319.748 44.338,317.014 44.019,316.266 44.246 M245.536 90.205 C 245.856 90.415,246.118 90.690,246.119 90.818 C 246.119 90.945,246.124 101.319,246.128 113.871 L 246.136 136.692 245.593 136.985 C 244.753 137.439,240.559 137.383,240.088 136.913 C 239.584 136.409,239.520 91.568,240.022 90.576 C 240.489 89.652,244.301 89.396,245.536 90.205 M232.735 104.664 C 233.387 105.140,233.590 136.263,232.946 136.908 C 232.399 137.455,228.062 137.454,227.515 136.906 C 226.985 136.376,227.060 105.361,227.593 104.719 C 228.029 104.194,232.033 104.151,232.735 104.664 M220.416 119.378 C 220.865 119.992,220.909 136.554,220.462 137.001 C 220.059 137.404,215.521 137.385,214.964 136.978 C 214.576 136.695,214.544 136.027,214.542 128.146 L 214.540 119.621 215.120 119.265 C 216.047 118.696,219.979 118.780,220.416 119.378 M110.784 173.085 L 110.848 190.122 111.381 190.690 C 111.675 191.002,111.915 191.432,111.915 191.646 C 111.915 192.402,112.459 193.214,113.162 193.505 C 113.554 193.668,114.201 194.075,114.600 194.411 L 115.325 195.021 170.676 195.082 L 226.028 195.143 225.884 196.386 C 225.805 197.070,225.673 199.123,225.591 200.948 C 225.484 203.352,225.314 204.626,224.976 205.564 C 224.601 206.603,224.470 207.838,224.313 211.772 C 224.163 215.533,224.027 216.864,223.731 217.457 C 223.502 217.917,223.236 219.442,223.076 221.208 C 222.844 223.773,222.728 224.280,222.239 224.870 C 221.926 225.247,221.610 225.856,221.536 226.224 C 221.463 226.592,221.148 227.060,220.838 227.264 C 220.527 227.467,220.273 227.794,220.273 227.989 C 220.273 228.185,220.018 228.461,219.706 228.603 C 219.394 228.745,219.023 229.116,218.881 229.427 C 218.739 229.739,218.458 229.994,218.257 229.994 C 218.056 229.994,217.771 230.259,217.623 230.582 C 217.476 230.906,217.152 231.235,216.903 231.314 C 216.654 231.393,216.336 231.707,216.198 232.012 C 216.059 232.316,215.699 232.628,215.398 232.703 C 215.097 232.779,214.775 233.080,214.682 233.373 C 214.590 233.667,214.316 234.046,214.074 234.216 C 213.492 234.625,213.511 235.604,214.108 235.977 C 214.369 236.140,214.582 236.461,214.582 236.690 C 214.582 236.920,214.742 237.107,214.938 237.107 C 215.351 237.107,215.401 236.418,215.044 235.635 C 214.773 235.039,215.316 233.314,215.775 233.314 C 216.210 233.314,221.836 227.518,222.146 226.751 C 222.313 226.336,222.592 225.943,222.765 225.877 C 222.937 225.810,223.262 224.922,223.485 223.903 C 223.708 222.885,223.990 221.860,224.111 221.626 C 224.232 221.393,224.534 218.813,224.782 215.893 C 225.031 212.974,225.395 209.890,225.592 209.041 C 225.789 208.192,226.015 206.024,226.094 204.223 C 226.235 201.045,226.320 200.370,227.006 196.969 C 227.305 195.489,227.297 195.319,226.905 194.835 L 226.479 194.309 171.153 194.191 L 115.827 194.072 114.896 193.543 C 113.528 192.765,112.654 191.839,112.389 190.885 C 112.068 189.730,112.069 157.801,112.389 157.201 C 112.658 156.699,112.522 156.564,111.428 156.250 L 110.720 156.047 110.784 173.085 M233.449 201.440 C 233.244 201.645,233.076 202.146,233.076 202.554 C 233.076 203.546,232.649 206.886,232.207 209.354 C 232.009 210.456,231.753 212.910,231.637 214.807 C 231.522 216.705,231.330 218.844,231.212 219.561 C 230.328 224.929,229.920 226.824,229.529 227.373 C 229.288 227.711,229.055 228.412,229.010 228.932 L 228.929 229.876 255.365 229.876 L 281.802 229.876 281.875 228.995 C 281.925 228.400,281.794 227.902,281.471 227.454 C 281.195 227.073,280.831 225.891,280.609 224.659 C 280.398 223.485,280.082 221.725,279.908 220.747 C 279.734 219.769,279.516 217.478,279.425 215.656 C 279.333 213.834,279.109 211.860,278.927 211.270 C 278.745 210.679,278.439 208.368,278.246 206.134 C 277.837 201.389,277.841 201.401,276.897 201.212 C 275.040 200.841,233.832 201.057,233.449 201.440 " stroke="none" fill="#fbd3c3" fill-rule="evenodd"></path><path id="path2" d="M50.385 23.701 C 49.864 23.815,49.131 24.026,48.757 24.170 C 48.382 24.314,47.330 24.538,46.418 24.667 C 45.506 24.796,44.478 25.099,44.134 25.341 C 43.791 25.582,43.082 25.914,42.561 26.078 C 42.039 26.243,41.397 26.572,41.135 26.811 C 40.872 27.050,40.285 27.414,39.831 27.621 C 39.045 27.979,38.484 28.364,36.370 29.994 C 35.370 30.765,33.501 32.643,32.365 34.016 C 31.974 34.490,31.403 35.154,31.097 35.492 C 30.792 35.831,30.342 36.573,30.098 37.141 C 29.855 37.709,29.564 38.174,29.453 38.174 C 29.342 38.174,29.066 38.761,28.840 39.478 C 28.614 40.196,28.340 40.782,28.232 40.782 C 27.996 40.782,27.594 41.799,27.412 42.857 C 27.339 43.281,27.043 44.135,26.755 44.754 C 25.533 47.380,25.608 57.564,26.870 60.292 C 27.219 61.045,27.505 61.846,27.505 62.070 C 27.506 62.294,27.826 63.118,28.216 63.900 C 28.606 64.683,28.928 65.430,28.931 65.560 C 28.936 65.821,29.932 67.390,31.053 68.903 C 31.449 69.437,31.772 69.963,31.772 70.071 C 31.772 70.366,35.620 74.059,37.132 75.216 C 39.504 77.031,43.659 79.203,45.640 79.665 C 46.290 79.816,46.931 80.027,47.063 80.132 C 48.328 81.145,59.507 81.170,61.718 80.166 C 62.266 79.917,63.223 79.637,63.844 79.545 C 64.465 79.452,65.217 79.184,65.515 78.950 C 65.813 78.715,66.604 78.344,67.274 78.126 C 67.943 77.907,68.546 77.581,68.615 77.401 C 68.684 77.222,69.101 76.924,69.541 76.740 C 70.237 76.449,71.575 75.528,72.899 74.426 C 73.818 73.662,75.400 72.153,75.400 72.040 C 75.400 71.973,75.987 71.302,76.704 70.550 C 77.421 69.798,78.008 69.054,78.008 68.898 C 78.008 68.741,78.225 68.381,78.490 68.096 C 78.755 67.812,79.182 67.125,79.439 66.569 C 79.696 66.014,80.102 65.240,80.340 64.849 C 80.579 64.458,80.844 63.782,80.930 63.347 C 81.016 62.912,81.293 62.267,81.545 61.913 C 81.822 61.524,82.108 60.506,82.267 59.344 C 82.412 58.284,82.713 57.063,82.935 56.628 C 83.493 55.537,83.510 48.966,82.956 48.102 C 82.758 47.793,82.457 46.580,82.287 45.406 C 82.107 44.160,81.797 43.016,81.544 42.656 C 81.305 42.317,81.008 41.590,80.885 41.041 C 80.761 40.492,80.384 39.624,80.046 39.113 C 79.708 38.602,79.431 38.017,79.431 37.812 C 79.431 37.608,79.180 37.205,78.874 36.918 C 78.568 36.631,78.184 36.143,78.020 35.833 C 76.711 33.354,72.423 29.424,68.939 27.509 C 68.450 27.240,68.050 26.920,68.050 26.797 C 68.050 26.675,67.596 26.455,67.042 26.309 C 66.488 26.163,65.608 25.800,65.086 25.502 C 64.564 25.204,63.391 24.826,62.478 24.661 C 61.565 24.496,60.445 24.203,59.988 24.010 C 59.011 23.597,51.909 23.368,50.385 23.701 M58.336 30.723 C 59.049 30.928,60.326 31.285,61.174 31.517 C 62.021 31.749,63.140 32.168,63.660 32.448 C 64.180 32.729,64.695 32.958,64.804 32.958 C 64.998 32.958,66.990 34.316,68.375 35.392 C 69.983 36.641,72.792 39.848,72.792 40.435 C 72.792 40.544,72.988 40.854,73.227 41.123 C 73.466 41.392,73.845 42.111,74.069 42.720 C 74.293 43.329,74.631 43.956,74.820 44.112 C 75.009 44.269,75.163 44.576,75.163 44.796 C 75.163 45.015,75.428 46.202,75.751 47.434 C 76.518 50.352,76.584 54.430,75.900 56.570 C 75.654 57.342,75.379 58.400,75.290 58.921 C 75.201 59.443,74.883 60.296,74.583 60.818 C 74.283 61.340,73.961 62.017,73.866 62.322 C 73.772 62.628,73.385 63.337,73.006 63.898 C 72.627 64.459,72.318 64.982,72.318 65.061 C 72.318 65.216,72.081 65.482,70.373 67.251 C 68.312 69.384,65.797 71.369,65.155 71.369 C 65.027 71.369,64.609 71.592,64.227 71.865 C 63.844 72.137,63.134 72.465,62.649 72.594 C 62.164 72.723,61.340 73.029,60.818 73.274 C 58.413 74.406,50.549 74.417,48.370 73.293 C 47.913 73.057,47.113 72.788,46.592 72.694 C 46.070 72.600,45.245 72.263,44.759 71.946 C 44.273 71.629,43.790 71.369,43.686 71.369 C 43.493 71.369,41.960 70.254,40.102 68.761 C 39.533 68.305,38.552 67.291,37.920 66.509 C 37.288 65.726,36.615 64.908,36.425 64.690 C 35.931 64.126,34.144 60.460,34.143 60.010 C 34.142 59.802,33.928 59.282,33.667 58.854 C 32.507 56.951,32.512 48.183,33.675 45.630 C 33.933 45.065,34.143 44.516,34.143 44.411 C 34.143 43.970,36.178 40.164,36.566 39.880 C 36.798 39.709,36.989 39.439,36.989 39.279 C 36.989 39.119,37.762 38.223,38.708 37.288 C 41.159 34.864,41.291 34.747,42.146 34.251 C 42.570 34.005,42.916 33.733,42.916 33.646 C 42.916 33.559,43.503 33.249,44.221 32.958 C 44.938 32.667,45.525 32.342,45.525 32.235 C 45.525 32.129,46.352 31.861,47.362 31.639 C 48.373 31.418,49.327 31.136,49.482 31.013 C 50.340 30.333,56.301 30.137,58.336 30.723 M220.273 61.613 C 218.592 61.977,216.417 64.065,185.719 94.797 L 154.418 126.131 144.133 126.195 C 138.476 126.231,133.134 126.224,132.261 126.181 L 130.676 126.102 129.060 124.484 C 128.172 123.593,126.992 122.402,126.438 121.836 C 125.883 121.269,125.262 120.646,125.056 120.451 C 123.913 119.365,120.594 115.824,119.277 114.286 C 117.203 111.862,116.059 110.656,110.966 105.527 C 108.554 103.097,105.993 100.443,105.276 99.628 C 104.558 98.813,102.686 96.836,101.115 95.233 C 97.933 91.988,97.185 91.492,92.946 89.826 L 90.931 89.034 61.330 88.960 C 28.693 88.878,24.827 88.977,22.223 89.965 C 21.340 90.301,20.422 90.575,20.184 90.575 C 19.946 90.575,19.274 90.828,18.692 91.138 C 18.109 91.448,17.373 91.780,17.056 91.877 C 16.739 91.974,16.139 92.307,15.724 92.618 C 15.309 92.929,14.882 93.184,14.776 93.185 C 14.669 93.187,14.114 93.560,13.541 94.015 C 12.968 94.471,12.408 94.843,12.296 94.843 C 11.948 94.843,7.445 99.426,7.054 100.178 C 6.850 100.569,6.407 101.148,6.069 101.464 C 5.730 101.780,5.453 102.217,5.453 102.435 C 5.453 102.653,5.244 103.020,4.989 103.251 C 4.734 103.483,4.352 104.193,4.140 104.829 C 3.929 105.466,3.668 105.987,3.561 105.987 C 3.327 105.987,2.845 107.297,2.845 107.934 C 2.845 108.183,2.580 108.949,2.255 109.635 C 1.227 111.809,1.192 113.248,1.218 153.408 C 1.244 194.674,1.190 192.711,2.309 193.270 C 2.731 193.481,3.254 193.801,3.472 193.982 C 3.805 194.258,11.035 194.309,49.651 194.309 L 95.436 194.309 96.503 193.559 C 98.570 192.106,98.400 194.465,98.400 167.339 L 98.400 143.286 98.895 142.838 C 99.382 142.397,99.397 142.398,99.728 142.860 C 100.041 143.297,101.589 144.971,107.054 150.784 C 108.228 152.032,109.348 153.246,109.544 153.481 C 110.743 154.922,113.162 157.220,113.842 157.564 C 114.281 157.787,114.868 158.176,115.145 158.429 C 115.640 158.881,117.148 159.396,119.265 159.838 C 122.079 160.424,126.090 160.539,141.417 160.473 L 157.558 160.403 159.692 159.737 C 164.138 158.349,166.378 156.888,169.034 153.646 C 169.408 153.189,170.126 152.001,170.630 151.005 C 171.513 149.262,172.753 147.984,203.881 116.743 C 242.261 78.223,238.118 82.736,239.254 78.206 C 239.715 76.368,237.199 68.524,236.148 68.524 C 236.016 68.524,235.842 68.337,235.762 68.109 C 235.616 67.691,232.381 64.493,232.105 64.493 C 232.023 64.493,231.553 64.173,231.061 63.782 C 230.569 63.391,230.028 63.071,229.859 63.071 C 229.690 63.071,229.017 62.738,228.364 62.332 C 227.105 61.550,222.468 61.138,220.273 61.613 M224.962 68.532 C 227.290 69.070,231.121 72.553,231.549 74.523 C 231.640 74.940,231.861 75.492,232.040 75.749 C 232.512 76.428,232.440 77.379,231.839 78.410 C 231.141 79.607,172.569 138.234,172.071 138.234 C 171.819 138.234,171.593 137.896,171.423 137.266 C 170.680 134.507,166.315 129.288,164.296 128.744 C 163.356 128.491,163.201 128.182,163.561 127.278 C 163.650 127.055,173.202 117.346,184.788 105.701 C 196.374 94.056,205.923 84.449,206.009 84.352 C 206.095 84.254,208.192 82.157,210.670 79.691 C 213.148 77.226,216.509 73.852,218.139 72.194 C 222.144 68.121,222.455 67.954,224.962 68.532 M91.439 96.533 C 91.681 96.745,92.359 97.130,92.946 97.389 C 94.309 97.990,96.296 99.970,104.186 108.586 C 105.086 109.569,106.740 111.341,107.861 112.523 C 108.982 113.706,111.020 115.872,112.389 117.336 C 114.726 119.836,115.451 120.593,115.972 121.079 C 116.321 121.404,118.131 123.364,120.489 125.968 C 121.696 127.302,123.119 128.833,123.650 129.369 C 124.182 129.906,125.093 130.873,125.675 131.520 C 127.299 133.322,126.637 133.254,142.552 133.254 C 156.428 133.254,156.787 133.266,157.988 133.751 C 160.679 134.839,160.996 134.996,161.381 135.421 C 161.601 135.664,161.903 135.862,162.053 135.862 C 162.433 135.862,164.183 138.407,164.530 139.463 C 164.687 139.944,164.944 140.379,165.099 140.431 C 165.294 140.496,165.382 141.292,165.382 142.995 C 165.382 145.532,165.381 145.536,164.004 148.393 C 163.562 149.312,160.780 151.972,160.094 152.134 C 159.742 152.216,159.081 152.510,158.625 152.787 C 157.798 153.288,157.722 153.290,139.656 153.290 L 121.517 153.290 119.858 152.616 C 117.573 151.689,115.790 150.151,111.773 145.641 C 111.395 145.215,110.178 143.919,109.069 142.759 C 106.757 140.340,102.243 135.573,100.225 133.419 C 97.508 130.518,97.169 130.219,96.148 129.829 C 94.860 129.337,93.540 129.622,92.403 130.638 L 91.642 131.318 91.519 159.020 C 91.451 174.256,91.371 186.738,91.341 186.758 C 90.573 187.267,86.987 187.315,49.447 187.315 C 14.977 187.315,9.034 187.266,8.640 186.978 C 8.189 186.648,8.179 185.974,8.114 151.590 C 8.036 110.267,7.931 112.309,10.363 107.765 C 10.573 107.374,10.943 106.654,11.187 106.165 C 11.430 105.676,11.721 105.276,11.832 105.276 C 11.944 105.276,12.163 104.966,12.320 104.588 C 12.668 103.747,16.274 100.190,17.012 99.958 C 17.306 99.866,17.546 99.685,17.546 99.557 C 17.546 99.429,17.932 99.162,18.405 98.965 C 18.877 98.768,19.653 98.360,20.130 98.059 C 20.607 97.758,21.367 97.432,21.820 97.334 C 22.273 97.237,22.964 96.983,23.355 96.770 C 24.582 96.104,25.238 96.092,58.481 96.120 C 88.150 96.145,91.038 96.181,91.439 96.533 " stroke="none" fill="#3961b7" fill-rule="evenodd"></path><path id="path3" d="M50.464 22.985 C 47.925 23.252,47.010 23.445,46.658 23.789 C 46.491 23.953,45.672 24.212,44.837 24.365 C 44.002 24.518,43.095 24.847,42.821 25.095 C 42.548 25.342,42.007 25.621,41.620 25.713 C 41.233 25.804,40.492 26.192,39.973 26.574 C 39.454 26.955,38.894 27.267,38.729 27.267 C 38.563 27.267,38.309 27.489,38.164 27.760 C 38.019 28.031,37.586 28.363,37.202 28.497 C 36.819 28.630,36.396 28.942,36.264 29.189 C 36.132 29.436,35.890 29.638,35.727 29.638 C 35.143 29.638,31.061 33.948,31.061 34.564 C 31.061 34.694,30.794 34.975,30.468 35.189 C 30.142 35.402,29.876 35.784,29.876 36.036 C 29.876 36.289,29.617 36.740,29.302 37.038 C 28.986 37.337,28.610 38.031,28.465 38.581 C 28.320 39.131,28.071 39.665,27.912 39.767 C 27.524 40.016,27.100 40.957,26.928 41.952 C 26.851 42.400,26.617 42.955,26.408 43.186 C 26.185 43.433,25.938 44.366,25.808 45.454 C 25.687 46.471,25.465 47.890,25.316 48.607 C 24.864 50.781,24.808 54.964,25.219 55.943 C 25.413 56.407,25.634 57.641,25.710 58.684 C 25.810 60.073,25.978 60.759,26.337 61.246 C 26.607 61.613,26.888 62.306,26.962 62.788 C 27.116 63.785,27.655 64.967,27.957 64.967 C 28.068 64.967,28.279 65.442,28.425 66.021 C 28.571 66.600,28.888 67.214,29.130 67.384 C 29.372 67.555,29.651 67.949,29.749 68.260 C 29.848 68.571,30.290 69.300,30.732 69.879 C 31.174 70.458,31.535 71.012,31.535 71.110 C 31.535 71.209,31.802 71.432,32.128 71.606 C 32.454 71.781,32.721 72.016,32.721 72.130 C 32.721 72.322,34.059 73.645,35.685 75.058 C 37.102 76.290,38.538 77.292,38.888 77.295 C 39.085 77.296,39.376 77.505,39.535 77.760 C 39.694 78.015,40.280 78.353,40.837 78.512 C 41.394 78.670,42.009 78.993,42.205 79.230 C 42.401 79.466,43.140 79.769,43.848 79.903 C 44.557 80.037,45.330 80.322,45.568 80.537 C 45.876 80.816,46.927 81.022,49.259 81.261 C 51.052 81.444,53.070 81.709,53.744 81.849 C 54.417 81.990,55.217 82.032,55.522 81.942 C 55.827 81.852,57.600 81.583,59.464 81.345 C 61.622 81.068,62.999 80.780,63.258 80.551 C 63.481 80.353,64.286 80.064,65.047 79.909 C 65.830 79.749,66.599 79.430,66.818 79.174 C 67.031 78.925,67.548 78.657,67.968 78.579 C 68.387 78.500,68.922 78.224,69.156 77.965 C 69.390 77.707,69.946 77.343,70.391 77.157 C 70.836 76.971,71.448 76.579,71.750 76.287 C 72.053 75.995,72.597 75.525,72.961 75.244 C 74.449 74.091,75.865 72.722,75.996 72.308 C 76.073 72.066,76.343 71.802,76.597 71.721 C 76.851 71.641,77.124 71.315,77.204 70.998 C 77.283 70.680,77.502 70.421,77.690 70.421 C 77.879 70.421,78.183 70.074,78.367 69.650 C 78.551 69.226,78.972 68.628,79.303 68.321 C 79.634 68.014,79.905 67.569,79.905 67.332 C 79.905 67.095,80.163 66.594,80.478 66.220 C 80.793 65.845,81.127 65.117,81.221 64.601 C 81.314 64.085,81.580 63.482,81.811 63.260 C 82.043 63.038,82.352 62.291,82.500 61.600 C 82.647 60.909,83.039 59.553,83.371 58.587 C 84.211 56.145,84.160 47.638,83.293 45.643 C 83.010 44.991,82.660 43.854,82.515 43.116 C 82.370 42.379,82.057 41.551,81.820 41.277 C 81.582 41.003,81.321 40.358,81.238 39.843 C 81.156 39.329,80.822 38.620,80.497 38.269 C 80.171 37.918,79.905 37.451,79.905 37.231 C 79.905 37.011,79.588 36.519,79.200 36.139 C 78.813 35.759,78.493 35.309,78.489 35.140 C 78.485 34.971,78.242 34.593,77.948 34.299 C 77.655 34.005,77.225 33.477,76.994 33.124 C 76.764 32.772,76.417 32.484,76.225 32.484 C 76.032 32.484,75.874 32.365,75.874 32.219 C 75.874 31.982,74.880 30.976,72.822 29.127 C 72.436 28.781,71.898 28.427,71.626 28.341 C 71.355 28.254,71.132 28.094,71.132 27.984 C 71.132 27.874,70.651 27.551,70.063 27.266 C 69.475 26.982,68.858 26.555,68.692 26.317 C 68.525 26.080,67.966 25.810,67.449 25.717 C 66.932 25.625,66.272 25.333,65.983 25.070 C 65.693 24.806,64.906 24.504,64.234 24.397 C 63.561 24.291,62.837 24.049,62.626 23.860 C 61.751 23.077,54.531 22.558,50.464 22.985 M59.988 24.010 C 60.445 24.203,61.565 24.496,62.478 24.661 C 63.391 24.826,64.564 25.204,65.086 25.502 C 65.608 25.800,66.488 26.163,67.042 26.309 C 67.596 26.455,68.050 26.675,68.050 26.797 C 68.050 26.920,68.450 27.240,68.939 27.509 C 72.423 29.424,76.711 33.354,78.020 35.833 C 78.184 36.143,78.568 36.631,78.874 36.918 C 79.180 37.205,79.431 37.608,79.431 37.812 C 79.431 38.017,79.708 38.602,80.046 39.113 C 80.384 39.624,80.761 40.492,80.885 41.041 C 81.008 41.590,81.305 42.317,81.544 42.656 C 81.797 43.016,82.107 44.160,82.287 45.406 C 82.457 46.580,82.758 47.793,82.956 48.102 C 83.510 48.966,83.493 55.537,82.935 56.628 C 82.713 57.063,82.412 58.284,82.267 59.344 C 82.108 60.506,81.822 61.524,81.545 61.913 C 81.293 62.267,81.016 62.912,80.930 63.347 C 80.844 63.782,80.579 64.458,80.340 64.849 C 80.102 65.240,79.696 66.014,79.439 66.569 C 79.182 67.125,78.755 67.812,78.490 68.096 C 78.225 68.381,78.008 68.741,78.008 68.898 C 78.008 69.054,77.421 69.798,76.704 70.550 C 75.987 71.302,75.400 71.973,75.400 72.040 C 75.400 72.153,73.818 73.662,72.899 74.426 C 71.575 75.528,70.237 76.449,69.541 76.740 C 69.101 76.924,68.684 77.222,68.615 77.401 C 68.546 77.581,67.943 77.907,67.274 78.126 C 66.604 78.344,65.813 78.715,65.515 78.950 C 65.217 79.184,64.465 79.452,63.844 79.545 C 63.223 79.637,62.266 79.917,61.718 80.166 C 59.507 81.170,48.328 81.145,47.063 80.132 C 46.931 80.027,46.290 79.816,45.640 79.665 C 43.659 79.203,39.504 77.031,37.132 75.216 C 35.620 74.059,31.772 70.366,31.772 70.071 C 31.772 69.963,31.449 69.437,31.053 68.903 C 29.932 67.390,28.936 65.821,28.931 65.560 C 28.928 65.430,28.606 64.683,28.216 63.900 C 27.826 63.118,27.506 62.294,27.505 62.070 C 27.505 61.846,27.219 61.045,26.870 60.292 C 25.608 57.564,25.533 47.380,26.755 44.754 C 27.043 44.135,27.339 43.281,27.412 42.857 C 27.594 41.799,27.996 40.782,28.232 40.782 C 28.340 40.782,28.614 40.196,28.840 39.478 C 29.066 38.761,29.342 38.174,29.453 38.174 C 29.564 38.174,29.855 37.709,30.098 37.141 C 30.342 36.573,30.792 35.831,31.097 35.492 C 31.403 35.154,31.974 34.490,32.365 34.016 C 33.501 32.643,35.370 30.765,36.370 29.994 C 38.484 28.364,39.045 27.979,39.831 27.621 C 40.285 27.414,40.872 27.050,41.135 26.811 C 41.397 26.572,42.039 26.243,42.561 26.078 C 43.082 25.914,43.791 25.582,44.134 25.341 C 44.478 25.099,45.506 24.796,46.418 24.667 C 47.330 24.538,48.382 24.314,48.757 24.170 C 50.760 23.399,58.290 23.292,59.988 24.010 M50.905 30.597 C 50.278 30.702,49.638 30.889,49.482 31.013 C 49.327 31.136,48.373 31.418,47.362 31.639 C 46.352 31.861,45.525 32.129,45.525 32.235 C 45.525 32.342,44.938 32.667,44.221 32.958 C 43.503 33.249,42.916 33.559,42.916 33.646 C 42.916 33.733,42.570 34.005,42.146 34.251 C 41.291 34.747,41.159 34.864,38.708 37.288 C 37.762 38.223,36.989 39.119,36.989 39.279 C 36.989 39.439,36.798 39.709,36.566 39.880 C 36.178 40.164,34.143 43.970,34.143 44.411 C 34.143 44.516,33.933 45.065,33.675 45.630 C 32.512 48.183,32.507 56.951,33.667 58.854 C 33.928 59.282,34.142 59.802,34.143 60.010 C 34.144 60.460,35.931 64.126,36.425 64.690 C 36.615 64.908,37.288 65.726,37.920 66.509 C 38.552 67.291,39.533 68.305,40.102 68.761 C 41.960 70.254,43.493 71.369,43.686 71.369 C 43.790 71.369,44.273 71.629,44.759 71.946 C 45.245 72.263,46.070 72.600,46.592 72.694 C 47.113 72.788,47.913 73.057,48.370 73.293 C 50.549 74.417,58.413 74.406,60.818 73.274 C 61.340 73.029,62.164 72.723,62.649 72.594 C 63.134 72.465,63.844 72.137,64.227 71.865 C 64.609 71.592,65.027 71.369,65.155 71.369 C 65.797 71.369,68.312 69.384,70.373 67.251 C 72.081 65.482,72.318 65.216,72.318 65.061 C 72.318 64.982,72.627 64.459,73.006 63.898 C 73.385 63.337,73.772 62.628,73.866 62.322 C 73.961 62.017,74.283 61.340,74.583 60.818 C 74.883 60.296,75.201 59.443,75.290 58.921 C 75.379 58.400,75.654 57.342,75.900 56.570 C 76.584 54.430,76.518 50.352,75.751 47.434 C 75.428 46.202,75.163 45.015,75.163 44.796 C 75.163 44.576,75.009 44.269,74.820 44.112 C 74.631 43.956,74.293 43.329,74.069 42.720 C 73.845 42.111,73.466 41.392,73.227 41.123 C 72.988 40.854,72.792 40.544,72.792 40.435 C 72.792 39.848,69.983 36.641,68.375 35.392 C 66.990 34.316,64.998 32.958,64.804 32.958 C 64.695 32.958,64.180 32.729,63.660 32.448 C 63.140 32.168,62.021 31.749,61.174 31.517 C 60.326 31.285,59.049 30.928,58.336 30.723 C 56.941 30.321,52.948 30.254,50.905 30.597 M220.312 61.294 C 218.546 61.614,218.367 61.722,216.471 63.604 C 216.110 63.963,215.695 64.256,215.549 64.256 C 215.403 64.256,215.162 64.523,215.013 64.849 C 214.865 65.175,214.669 65.442,214.578 65.442 C 214.349 65.442,211.974 67.837,211.974 68.068 C 211.974 68.171,211.754 68.325,211.486 68.410 C 211.218 68.495,210.900 68.822,210.781 69.137 C 210.661 69.452,210.400 69.710,210.201 69.710 C 210.003 69.710,209.840 69.799,209.840 69.909 C 209.840 70.019,209.333 70.598,208.714 71.196 C 207.070 72.783,206.812 73.042,204.907 75.023 C 203.955 76.013,203.082 76.823,202.967 76.823 C 202.853 76.823,202.693 77.031,202.612 77.285 C 202.531 77.539,202.284 77.812,202.063 77.891 C 201.841 77.970,201.180 78.613,200.593 79.321 C 200.006 80.028,199.333 80.671,199.097 80.750 C 198.862 80.829,198.571 81.152,198.451 81.467 C 198.331 81.782,198.071 82.039,197.872 82.039 C 197.673 82.039,197.510 82.137,197.510 82.257 C 197.510 82.377,196.950 83.016,196.266 83.678 C 195.581 84.341,194.914 84.990,194.784 85.122 C 194.527 85.382,190.886 89.022,190.545 89.359 C 190.430 89.473,189.538 90.380,188.562 91.374 C 187.586 92.369,186.709 93.183,186.615 93.183 C 186.520 93.183,186.321 93.450,186.172 93.776 C 186.024 94.102,185.740 94.369,185.542 94.369 C 185.343 94.369,185.181 94.459,185.181 94.569 C 185.181 94.861,182.880 97.214,182.594 97.214 C 182.461 97.214,182.239 97.425,182.102 97.682 C 181.784 98.275,179.745 100.296,179.464 100.296 C 179.348 100.296,179.253 100.459,179.253 100.657 C 179.253 100.856,178.986 101.139,178.660 101.288 C 178.334 101.437,178.068 101.640,178.068 101.741 C 178.068 101.841,177.257 102.704,176.267 103.659 C 175.277 104.613,174.344 105.531,174.193 105.697 C 172.803 107.232,170.428 109.544,170.240 109.544 C 170.111 109.544,170.006 109.644,170.006 109.766 C 170.006 109.889,169.140 110.837,168.082 111.873 C 165.720 114.186,166.437 113.468,161.935 118.020 C 159.839 120.139,158.023 121.873,157.900 121.873 C 157.777 121.873,157.676 121.984,157.676 122.120 C 157.676 122.255,157.116 122.892,156.432 123.534 C 155.747 124.176,154.938 124.946,154.634 125.244 L 154.081 125.785 143.371 125.904 C 137.481 125.969,132.875 126.076,133.136 126.141 C 133.397 126.206,138.292 126.231,144.014 126.195 L 154.419 126.131 185.746 94.779 C 204.391 76.119,217.636 63.042,218.465 62.478 L 219.857 61.529 223.464 61.529 L 227.072 61.529 228.312 62.300 C 228.994 62.724,229.690 63.071,229.859 63.071 C 230.028 63.071,230.569 63.391,231.061 63.782 C 231.553 64.173,232.023 64.493,232.105 64.493 C 232.381 64.493,235.616 67.691,235.762 68.109 C 235.842 68.337,236.016 68.524,236.148 68.524 C 236.545 68.524,238.138 71.839,238.598 73.622 C 239.583 77.438,239.581 77.109,238.642 80.498 C 238.094 82.475,239.894 80.599,203.881 116.738 C 180.485 140.215,171.405 149.473,171.034 150.230 C 170.439 151.446,170.722 151.388,171.533 150.128 C 171.841 149.650,181.626 139.699,193.278 128.015 C 235.350 85.825,238.451 82.674,238.628 81.921 C 238.720 81.529,239.019 80.739,239.294 80.165 C 240.006 78.675,240.012 75.445,239.305 74.085 C 239.031 73.557,238.734 72.737,238.644 72.261 C 238.555 71.786,238.226 71.050,237.913 70.626 C 237.600 70.202,237.344 69.717,237.344 69.549 C 237.344 69.381,237.051 68.909,236.692 68.500 C 236.334 68.092,235.720 67.388,235.329 66.937 C 234.938 66.486,234.472 65.992,234.294 65.839 C 234.116 65.685,233.692 65.267,233.352 64.908 C 233.012 64.549,232.638 64.256,232.521 64.256 C 232.405 64.256,231.946 63.938,231.503 63.548 C 231.060 63.159,230.405 62.771,230.049 62.687 C 229.693 62.603,229.175 62.329,228.898 62.078 C 227.856 61.133,223.430 60.730,220.312 61.294 M221.814 68.734 C 221.423 68.979,219.769 70.536,218.139 72.194 C 216.509 73.852,213.148 77.226,210.670 79.691 C 208.192 82.157,206.095 84.254,206.009 84.352 C 205.923 84.449,196.374 94.056,184.788 105.701 C 173.202 117.346,163.650 127.055,163.561 127.278 C 163.201 128.182,163.356 128.491,164.296 128.744 C 165.125 128.967,167.849 131.343,168.988 132.837 C 169.836 133.950,171.196 136.423,171.423 137.266 C 171.593 137.896,171.819 138.234,172.071 138.234 C 172.569 138.234,231.141 79.607,231.839 78.410 C 232.440 77.379,232.512 76.428,232.040 75.749 C 231.861 75.492,231.640 74.940,231.549 74.523 C 230.785 71.008,224.320 67.164,221.814 68.734 M29.046 88.184 C 28.785 88.288,27.103 88.498,25.309 88.651 C 22.139 88.921,21.637 89.033,20.391 89.752 C 20.065 89.940,19.553 90.095,19.253 90.097 C 18.646 90.101,17.309 90.725,17.309 91.004 C 17.309 91.102,16.826 91.325,16.236 91.500 C 15.645 91.674,15.030 92.005,14.868 92.236 C 14.707 92.467,14.203 92.829,13.748 93.040 C 12.687 93.534,11.439 94.439,10.599 95.327 C 10.233 95.713,9.840 96.028,9.725 96.028 C 9.610 96.028,9.454 96.226,9.377 96.467 C 9.301 96.708,8.973 97.026,8.650 97.173 C 8.326 97.320,8.062 97.539,8.062 97.659 C 8.062 97.780,7.715 98.250,7.291 98.705 C 6.000 100.089,4.979 101.512,4.979 101.925 C 4.979 102.140,4.771 102.447,4.515 102.606 C 4.260 102.765,3.932 103.341,3.785 103.885 C 3.638 104.429,3.314 105.045,3.064 105.253 C 2.803 105.469,2.509 106.165,2.377 106.878 C 2.250 107.563,1.933 108.417,1.673 108.775 C 1.358 109.208,1.153 109.978,1.060 111.085 C 0.865 113.388,0.755 113.811,0.351 113.811 C -0.212 113.811,-0.178 191.749,0.384 191.862 C 0.596 191.904,0.889 192.298,1.036 192.737 C 1.201 193.229,1.701 193.822,2.335 194.278 L 3.366 195.021 49.123 195.084 C 98.770 195.153,95.985 195.231,97.653 193.717 C 99.145 192.362,99.099 193.189,99.109 167.516 C 99.115 152.781,99.204 143.910,99.348 143.687 C 99.551 143.372,99.578 143.373,99.581 143.693 C 99.583 143.893,99.878 144.327,100.237 144.658 C 100.596 144.989,101.583 146.034,102.430 146.982 C 103.278 147.929,104.878 149.653,105.987 150.813 C 108.349 153.286,108.508 153.451,108.815 153.764 C 108.943 153.894,109.507 154.489,110.070 155.085 C 111.161 156.241,112.628 156.981,111.768 155.941 C 111.532 155.656,111.016 155.087,110.620 154.676 C 110.223 154.265,109.739 153.731,109.544 153.491 C 109.348 153.250,108.228 152.032,107.054 150.784 C 101.589 144.971,100.041 143.297,99.728 142.860 C 99.397 142.398,99.382 142.397,98.895 142.838 L 98.400 143.286 98.400 167.339 C 98.400 194.465,98.570 192.106,96.503 193.559 L 95.436 194.309 49.651 194.309 C 11.035 194.309,3.805 194.258,3.472 193.982 C 3.254 193.801,2.731 193.481,2.309 193.270 C 1.190 192.711,1.244 194.674,1.218 153.408 C 1.192 113.248,1.227 111.809,2.255 109.635 C 2.580 108.949,2.845 108.183,2.845 107.934 C 2.845 107.297,3.327 105.987,3.561 105.987 C 3.668 105.987,3.929 105.466,4.140 104.829 C 4.352 104.193,4.734 103.483,4.989 103.251 C 5.244 103.020,5.453 102.653,5.453 102.435 C 5.453 102.217,5.730 101.780,6.069 101.464 C 6.407 101.148,6.850 100.569,7.054 100.178 C 7.445 99.426,11.948 94.843,12.296 94.843 C 12.408 94.843,12.968 94.471,13.541 94.015 C 14.114 93.560,14.669 93.187,14.776 93.185 C 14.882 93.184,15.309 92.929,15.724 92.618 C 16.139 92.307,16.739 91.974,17.056 91.877 C 17.373 91.780,18.109 91.448,18.692 91.138 C 19.274 90.828,19.946 90.575,20.184 90.575 C 20.422 90.575,21.340 90.301,22.223 89.965 C 24.827 88.977,28.693 88.878,61.330 88.960 L 90.931 89.034 92.946 89.826 C 97.201 91.499,97.932 91.986,101.169 95.300 C 102.770 96.940,104.376 98.611,104.737 99.015 C 107.063 101.612,110.236 104.914,110.791 105.314 L 111.446 105.786 110.966 104.972 C 110.702 104.525,110.007 103.652,109.422 103.033 C 108.837 102.413,108.358 101.809,108.358 101.689 C 108.358 101.570,108.100 101.354,107.785 101.211 C 107.470 101.067,107.158 100.742,107.092 100.487 C 107.025 100.232,106.758 99.968,106.498 99.901 C 106.238 99.833,105.897 99.467,105.741 99.088 C 105.584 98.709,105.305 98.400,105.122 98.400 C 104.939 98.400,104.684 98.122,104.556 97.784 C 104.427 97.445,104.101 97.110,103.832 97.040 C 103.563 96.970,103.243 96.650,103.121 96.329 C 102.999 96.008,102.686 95.690,102.425 95.622 C 102.164 95.553,101.887 95.244,101.809 94.933 C 101.731 94.623,101.576 94.369,101.464 94.369 C 101.352 94.369,100.887 93.995,100.431 93.539 C 99.974 93.082,99.498 92.709,99.372 92.709 C 99.246 92.709,99.077 92.501,98.996 92.247 C 98.915 91.993,98.651 91.722,98.408 91.645 C 98.166 91.568,97.569 91.189,97.084 90.803 C 96.598 90.417,95.963 90.101,95.672 90.101 C 95.382 90.101,94.860 89.877,94.513 89.604 C 94.137 89.309,93.284 89.023,92.406 88.900 C 91.595 88.786,90.130 88.566,89.152 88.412 C 87.078 88.084,29.839 87.868,29.046 88.184 M25.015 96.238 C 24.493 96.318,23.746 96.558,23.355 96.770 C 22.964 96.983,22.273 97.237,21.820 97.334 C 21.367 97.432,20.607 97.758,20.130 98.059 C 19.653 98.360,18.877 98.768,18.405 98.965 C 17.932 99.162,17.546 99.429,17.546 99.557 C 17.546 99.685,17.306 99.866,17.012 99.958 C 16.274 100.190,12.668 103.747,12.320 104.588 C 12.163 104.966,11.944 105.276,11.832 105.276 C 11.721 105.276,11.430 105.676,11.187 106.165 C 10.943 106.654,10.573 107.374,10.363 107.765 C 7.931 112.309,8.036 110.267,8.114 151.590 C 8.179 185.974,8.189 186.648,8.640 186.978 C 9.034 187.266,14.977 187.315,49.447 187.315 C 86.987 187.315,90.573 187.267,91.341 186.758 C 91.371 186.738,91.451 174.256,91.519 159.020 L 91.642 131.318 92.403 130.638 C 93.540 129.622,94.860 129.337,96.148 129.829 C 97.169 130.219,97.508 130.518,100.225 133.419 C 102.243 135.573,106.757 140.340,109.069 142.759 C 110.178 143.919,111.395 145.215,111.773 145.641 C 115.790 150.151,117.573 151.689,119.858 152.616 L 121.517 153.290 139.656 153.290 C 157.722 153.290,157.798 153.288,158.625 152.787 C 159.081 152.510,159.742 152.216,160.094 152.134 C 160.780 151.972,163.562 149.312,164.004 148.393 C 165.381 145.536,165.382 145.532,165.382 142.995 C 165.382 141.292,165.294 140.496,165.099 140.431 C 164.944 140.379,164.687 139.944,164.530 139.463 C 164.183 138.407,162.433 135.862,162.053 135.862 C 161.903 135.862,161.601 135.664,161.381 135.421 C 160.996 134.996,160.679 134.839,157.988 133.751 C 156.787 133.266,156.428 133.254,142.552 133.254 C 126.637 133.254,127.299 133.322,125.675 131.520 C 125.093 130.873,124.182 129.906,123.650 129.369 C 123.119 128.833,121.696 127.302,120.489 125.968 C 118.131 123.364,116.321 121.404,115.972 121.079 C 115.451 120.593,114.726 119.836,112.389 117.336 C 111.020 115.872,108.982 113.706,107.861 112.523 C 106.740 111.341,105.086 109.569,104.186 108.586 C 96.296 99.970,94.309 97.990,92.946 97.389 C 92.359 97.130,91.681 96.745,91.439 96.533 C 90.988 96.137,27.504 95.856,25.015 96.238 M119.197 114.200 C 119.609 114.720,121.019 116.255,122.332 117.613 C 123.644 118.970,124.718 120.160,124.718 120.257 C 124.718 120.354,124.948 120.557,125.228 120.707 C 126.049 121.146,124.964 119.745,122.707 117.453 C 121.662 116.391,120.442 115.110,119.998 114.607 C 118.885 113.348,118.278 113.040,119.197 114.200 M162.537 158.754 C 162.146 158.925,160.865 159.365,159.692 159.734 L 157.558 160.403 139.656 160.403 C 125.048 160.403,121.504 160.342,120.390 160.069 C 119.639 159.884,118.958 159.801,118.875 159.884 C 117.659 161.100,159.158 161.154,160.514 159.939 C 160.714 159.760,161.272 159.540,161.754 159.451 C 162.635 159.287,163.587 158.758,163.367 158.554 C 163.302 158.494,162.928 158.584,162.537 158.754 " stroke="none" fill="#a3dafa" fill-rule="evenodd"></path><path id="path4" d="M0.000 56.906 C 0.000 107.005,0.042 113.811,0.351 113.811 C 0.755 113.811,0.865 113.388,1.060 111.085 C 1.153 109.978,1.358 109.208,1.673 108.775 C 1.933 108.417,2.250 107.563,2.377 106.878 C 2.509 106.165,2.803 105.469,3.064 105.253 C 3.314 105.045,3.638 104.429,3.785 103.885 C 3.932 103.341,4.260 102.765,4.515 102.606 C 4.771 102.447,4.979 102.140,4.979 101.925 C 4.979 101.512,6.000 100.089,7.291 98.705 C 7.715 98.250,8.062 97.780,8.062 97.659 C 8.062 97.539,8.326 97.320,8.650 97.173 C 8.973 97.026,9.301 96.708,9.377 96.467 C 9.454 96.226,9.610 96.028,9.725 96.028 C 9.840 96.028,10.233 95.713,10.599 95.327 C 11.439 94.439,12.687 93.534,13.748 93.040 C 14.203 92.829,14.707 92.467,14.868 92.236 C 15.030 92.005,15.645 91.674,16.236 91.500 C 16.826 91.325,17.309 91.102,17.309 91.004 C 17.309 90.718,18.531 90.180,19.531 90.026 C 20.037 89.948,20.624 89.728,20.836 89.537 C 21.355 89.069,21.845 88.969,25.845 88.512 C 30.244 88.009,86.057 87.920,89.152 88.411 C 90.130 88.566,91.595 88.786,92.406 88.900 C 93.284 89.023,94.137 89.309,94.513 89.604 C 94.860 89.877,95.382 90.101,95.672 90.101 C 95.963 90.101,96.598 90.417,97.084 90.803 C 97.569 91.189,98.166 91.568,98.408 91.645 C 98.651 91.722,98.915 91.993,98.996 92.247 C 99.077 92.501,99.246 92.709,99.372 92.709 C 99.498 92.709,99.974 93.082,100.431 93.539 C 100.887 93.995,101.352 94.369,101.464 94.369 C 101.576 94.369,101.731 94.623,101.809 94.933 C 101.887 95.244,102.164 95.553,102.425 95.622 C 102.686 95.690,102.999 96.008,103.121 96.329 C 103.243 96.650,103.563 96.970,103.832 97.040 C 104.101 97.110,104.427 97.445,104.556 97.784 C 104.684 98.122,104.939 98.400,105.122 98.400 C 105.305 98.400,105.584 98.709,105.741 99.088 C 105.897 99.467,106.238 99.833,106.498 99.901 C 106.758 99.968,107.025 100.232,107.092 100.487 C 107.158 100.742,107.470 101.067,107.785 101.211 C 108.100 101.354,108.358 101.570,108.358 101.689 C 108.358 102.036,110.401 104.102,110.573 103.930 C 110.659 103.844,110.729 81.526,110.729 54.335 L 110.729 4.896 111.593 3.148 C 112.181 1.958,112.673 1.288,113.134 1.049 C 115.250 -0.045,117.658 0.000,56.906 0.000 L 0.000 0.000 0.000 56.906 M397.155 0.342 C 397.155 0.530,397.472 0.872,397.859 1.101 C 398.519 1.490,399.289 2.879,399.289 3.680 C 399.289 3.873,399.449 4.031,399.644 4.031 C 399.933 4.031,400.000 3.649,400.000 2.015 L 400.000 0.000 398.577 0.000 C 397.496 0.000,397.155 0.082,397.155 0.342 M60.818 23.249 C 61.600 23.395,62.414 23.670,62.626 23.860 C 62.837 24.049,63.561 24.291,64.234 24.397 C 64.906 24.504,65.693 24.806,65.983 25.070 C 66.272 25.333,66.932 25.625,67.449 25.717 C 67.966 25.810,68.525 26.080,68.692 26.317 C 68.858 26.555,69.475 26.982,70.063 27.266 C 70.651 27.551,71.132 27.874,71.132 27.984 C 71.132 28.094,71.355 28.254,71.626 28.341 C 71.898 28.427,72.436 28.781,72.822 29.127 C 74.880 30.976,75.874 31.982,75.874 32.219 C 75.874 32.365,76.032 32.484,76.225 32.484 C 76.417 32.484,76.764 32.772,76.994 33.124 C 77.225 33.477,77.655 34.005,77.948 34.299 C 78.242 34.593,78.485 34.971,78.489 35.140 C 78.493 35.309,78.813 35.759,79.200 36.139 C 79.588 36.519,79.905 37.011,79.905 37.231 C 79.905 37.451,80.171 37.918,80.497 38.269 C 80.822 38.620,81.156 39.329,81.238 39.843 C 81.321 40.358,81.582 41.003,81.820 41.277 C 82.057 41.551,82.370 42.379,82.515 43.116 C 82.660 43.854,83.010 44.991,83.293 45.643 C 84.160 47.638,84.211 56.145,83.371 58.587 C 83.039 59.553,82.647 60.909,82.500 61.600 C 82.352 62.291,82.043 63.038,81.811 63.260 C 81.580 63.482,81.314 64.085,81.221 64.601 C 81.127 65.117,80.793 65.845,80.478 66.220 C 80.163 66.594,79.905 67.095,79.905 67.332 C 79.905 67.569,79.634 68.014,79.303 68.321 C 78.972 68.628,78.551 69.226,78.367 69.650 C 78.183 70.074,77.879 70.421,77.690 70.421 C 77.502 70.421,77.283 70.680,77.204 70.998 C 77.124 71.315,76.851 71.641,76.597 71.721 C 76.343 71.802,76.073 72.066,75.996 72.308 C 75.865 72.722,74.449 74.091,72.961 75.244 C 72.597 75.525,72.053 75.995,71.750 76.287 C 71.448 76.579,70.836 76.971,70.391 77.157 C 69.946 77.343,69.390 77.707,69.156 77.965 C 68.922 78.224,68.387 78.500,67.968 78.579 C 67.548 78.657,67.031 78.925,66.818 79.174 C 66.599 79.430,65.830 79.749,65.047 79.909 C 64.286 80.064,63.481 80.353,63.258 80.551 C 62.999 80.780,61.622 81.068,59.464 81.345 C 57.600 81.583,55.827 81.852,55.522 81.942 C 55.217 82.032,54.417 81.990,53.744 81.849 C 53.070 81.709,51.052 81.444,49.259 81.261 C 46.927 81.022,45.876 80.816,45.568 80.537 C 45.330 80.322,44.557 80.037,43.848 79.903 C 43.140 79.769,42.401 79.466,42.205 79.230 C 42.009 78.993,41.394 78.670,40.837 78.512 C 40.280 78.353,39.694 78.015,39.535 77.760 C 39.376 77.505,39.085 77.296,38.888 77.295 C 38.538 77.292,37.102 76.290,35.685 75.058 C 34.059 73.645,32.721 72.322,32.721 72.130 C 32.721 72.016,32.454 71.781,32.128 71.606 C 31.802 71.432,31.535 71.209,31.535 71.110 C 31.535 71.012,31.174 70.458,30.732 69.879 C 30.290 69.300,29.848 68.571,29.749 68.260 C 29.651 67.949,29.372 67.555,29.130 67.384 C 28.888 67.214,28.571 66.600,28.425 66.021 C 28.279 65.442,28.068 64.967,27.957 64.967 C 27.655 64.967,27.116 63.785,26.962 62.788 C 26.888 62.306,26.607 61.613,26.337 61.246 C 25.978 60.759,25.810 60.073,25.710 58.684 C 25.634 57.641,25.413 56.407,25.219 55.943 C 24.808 54.964,24.864 50.781,25.316 48.607 C 25.465 47.890,25.687 46.471,25.808 45.454 C 25.938 44.366,26.185 43.433,26.408 43.186 C 26.617 42.955,26.851 42.400,26.928 41.952 C 27.100 40.957,27.524 40.016,27.912 39.767 C 28.071 39.665,28.320 39.131,28.465 38.581 C 28.610 38.031,28.986 37.337,29.302 37.038 C 29.617 36.740,29.876 36.289,29.876 36.036 C 29.876 35.784,30.142 35.402,30.468 35.189 C 30.794 34.975,31.061 34.694,31.061 34.564 C 31.061 33.948,35.143 29.638,35.727 29.638 C 35.890 29.638,36.132 29.436,36.264 29.189 C 36.396 28.942,36.819 28.630,37.202 28.497 C 37.586 28.363,38.019 28.031,38.164 27.760 C 38.309 27.489,38.563 27.267,38.729 27.267 C 38.894 27.267,39.454 26.955,39.973 26.574 C 40.492 26.192,41.233 25.804,41.620 25.713 C 42.007 25.621,42.548 25.342,42.821 25.095 C 43.095 24.847,44.002 24.518,44.837 24.365 C 45.672 24.212,46.491 23.953,46.658 23.789 C 47.597 22.872,56.910 22.517,60.818 23.249 M99.273 143.778 C 99.184 144.010,99.108 154.728,99.105 167.595 C 99.099 193.183,99.145 192.362,97.653 193.717 C 95.985 195.231,98.770 195.153,49.123 195.084 L 3.366 195.021 2.335 194.278 C 1.701 193.822,1.201 193.229,1.036 192.737 C 0.889 192.298,0.596 191.904,0.384 191.862 C 0.032 191.791,-0.000 193.677,-0.000 214.446 L 0.000 237.107 107.291 237.107 C 209.535 237.107,214.582 237.088,214.582 236.690 C 214.582 236.461,214.369 236.140,214.108 235.977 C 213.511 235.604,213.492 234.625,214.074 234.216 C 214.316 234.046,214.590 233.667,214.682 233.373 C 214.775 233.080,215.097 232.779,215.398 232.703 C 215.699 232.628,216.059 232.316,216.198 232.012 C 216.336 231.707,216.654 231.393,216.903 231.314 C 217.152 231.235,217.476 230.906,217.623 230.582 C 217.771 230.259,218.056 229.994,218.257 229.994 C 218.458 229.994,218.739 229.739,218.881 229.427 C 219.023 229.116,219.394 228.745,219.706 228.603 C 220.018 228.461,220.273 228.185,220.273 227.989 C 220.273 227.794,220.527 227.467,220.838 227.264 C 221.148 227.060,221.463 226.592,221.536 226.224 C 221.610 225.856,221.926 225.247,222.239 224.870 C 222.728 224.280,222.844 223.773,223.076 221.208 C 223.236 219.442,223.502 217.917,223.731 217.457 C 224.027 216.864,224.163 215.533,224.313 211.772 C 224.470 207.838,224.601 206.603,224.976 205.564 C 225.314 204.626,225.484 203.352,225.591 200.948 C 225.673 199.123,225.805 197.070,225.884 196.386 L 226.028 195.143 170.676 195.082 L 115.325 195.021 114.600 194.411 C 114.201 194.075,113.554 193.668,113.162 193.505 C 112.459 193.214,111.915 192.402,111.915 191.646 C 111.915 191.432,111.675 191.002,111.381 190.690 L 110.848 190.122 110.784 172.904 L 110.720 155.686 109.954 154.934 C 109.533 154.520,109.057 154.034,108.898 153.854 C 108.739 153.674,108.499 153.420,108.365 153.290 C 107.566 152.509,103.734 148.439,102.430 146.985 C 101.583 146.040,100.609 144.992,100.267 144.655 C 99.925 144.318,99.598 143.888,99.540 143.699 C 99.457 143.428,99.401 143.445,99.273 143.778 M399.173 191.570 C 399.011 192.306,397.745 193.717,397.246 193.717 C 397.086 193.717,396.605 194.010,396.179 194.369 L 395.404 195.021 340.173 195.082 L 284.942 195.143 285.112 196.623 C 285.206 197.437,285.372 199.864,285.482 202.015 C 285.617 204.660,285.810 206.274,286.079 206.995 C 286.362 207.755,286.546 209.460,286.718 212.922 C 286.875 216.076,287.063 217.908,287.251 218.139 C 287.546 218.499,288.083 221.835,288.090 223.355 C 288.093 223.880,288.354 224.569,288.801 225.228 C 289.190 225.802,289.508 226.403,289.508 226.564 C 289.508 226.725,289.767 227.027,290.083 227.234 C 290.399 227.441,290.724 227.821,290.806 228.079 C 290.888 228.336,291.147 228.608,291.381 228.682 C 291.615 228.757,291.928 229.082,292.075 229.406 C 292.223 229.729,292.453 229.994,292.588 229.994 C 292.954 229.994,296.384 233.460,296.384 233.829 C 296.384 234.005,296.598 234.281,296.858 234.444 C 297.119 234.607,297.333 234.883,297.333 235.058 C 297.333 235.232,297.119 235.621,296.858 235.922 C 295.763 237.185,292.393 237.107,348.192 237.107 L 400.000 237.107 400.000 213.989 C 400.000 194.173,399.952 190.871,399.663 190.871 C 399.478 190.871,399.257 191.186,399.173 191.570 " stroke="none" fill="#fbfbfb" fill-rule="evenodd"></path></g></svg>